<svg xmlns="http://www.w3.org/2000/svg" width="29.021" height="15.503" viewBox="0 0 29.021 15.503">
  <g id="galaxy-svgrepo-com" transform="translate(0 -117.234)" opacity="0.279">
    <path id="Path_732" data-name="Path 732" d="M0,262.891Z" transform="translate(0 -137.52)"/>
    <g id="Group_93" data-name="Group 93" transform="translate(0 117.234)">
      <path id="Path_733" data-name="Path 733" d="M22.143,119.077a16.71,16.71,0,0,0-7.971-1.843,20.736,20.736,0,0,0-9.891,2.285,9.825,9.825,0,0,0-3.094,2.559A5.419,5.419,0,0,0,0,125.371a.6.6,0,0,0,.6.585.6.6,0,0,0,.6-.585c0-1.789,1.3-3.5,3.667-4.813a19.487,19.487,0,0,1,9.3-2.132,15.47,15.47,0,0,1,7.377,1.691c1.851,1.029,2.871,2.36,2.871,3.746,0,1.065-.794,2.093-2.235,2.894a12.256,12.256,0,0,1-5.844,1.337,11.42,11.42,0,0,1-2.437-.257l-.143,1.187a12.641,12.641,0,0,0,2.581.261,13.5,13.5,0,0,0,6.437-1.49c1.839-1.023,2.852-2.419,2.852-3.933C25.631,122.027,24.391,120.327,22.143,119.077Z" transform="translate(0 -117.234)" fill="#967adc"/>
      <path id="Path_734" data-name="Path 734" d="M84.837,182.345a.6.6,0,0,0-.6.6c0,1.789-1.3,3.5-3.667,4.818a19.484,19.484,0,0,1-9.3,2.132,15.47,15.47,0,0,1-7.377-1.691c-1.853-1.029-2.873-2.36-2.873-3.746,0-1.065.8-2.093,2.237-2.894a12.249,12.249,0,0,1,5.842-1.337,11.42,11.42,0,0,1,2.437.257l.131-1.191a12.644,12.644,0,0,0-2.568-.257,13.5,13.5,0,0,0-6.437,1.49c-1.839,1.023-2.85,2.419-2.85,3.933,0,1.836,1.238,3.535,3.486,4.785a16.712,16.712,0,0,0,7.973,1.843,20.736,20.736,0,0,0,9.891-2.285,9.864,9.864,0,0,0,3.094-2.559,5.4,5.4,0,0,0,1.187-3.3A.6.6,0,0,0,84.837,182.345Z" transform="translate(-56.422 -175.581)" fill="#967adc"/>
    </g>
    <path id="Path_735" data-name="Path 735" d="M190.858,186.681a4.164,4.164,0,1,1-4.164-4.1A4.133,4.133,0,0,1,190.858,186.681Z" transform="translate(-172.185 -61.694)" fill="#ac92ec"/>
    <path id="Path_736" data-name="Path 736" d="M227.628,225.819a1.814,1.814,0,1,1-1.814-1.788A1.8,1.8,0,0,1,227.628,225.819Z" transform="translate(-211.303 -100.831)" fill="#967adc"/>
  </g>
</svg>
