<svg id="mars-svgrepo-com" xmlns="http://www.w3.org/2000/svg" width="82" height="82.008" viewBox="0 0 82 82.008">
  <path id="Path_725" data-name="Path 725" d="M82,41A41,41,0,1,1,41,0,41,41,0,0,1,82,41Z" transform="translate(-0.004)" fill="#fc6e51"/>
  <g id="Group_92" data-name="Group 92" transform="translate(9.154 11.938)">
    <path id="Path_726" data-name="Path 726" d="M340.508,168.547c0,4.718-4.589,8.542-10.25,8.542s-10.249-3.824-10.249-8.542S324.6,160,330.258,160,340.508,163.827,340.508,168.547Z" transform="translate(-277.912 -146.313)" fill="#e9573f"/>
    <path id="Path_727" data-name="Path 727" d="M155.346,357.131c0,2.831-3.059,5.125-6.833,5.125s-6.834-2.295-6.834-5.125,3.061-5.125,6.834-5.125S155.346,354.3,155.346,357.131Z" transform="translate(-128.143 -307.563)" fill="#e9573f"/>
    <path id="Path_728" data-name="Path 728" d="M74.244,198.838c0,3.774-3.824,6.835-8.541,6.835s-8.542-3.061-8.542-6.835S60.985,192,65.7,192,74.244,195.064,74.244,198.838Z" transform="translate(-57.161 -173.188)" fill="#e9573f"/>
    <path id="Path_729" data-name="Path 729" d="M102.369,77.971a1.758,1.758,0,0,0-.53.085,83.8,83.8,0,0,1-16.7,3.344c-8.319.7-13.873-1.249-17.067-3.006A16.636,16.636,0,0,1,63.2,74.532q-1.22,1.213-2.336,2.528a20.6,20.6,0,0,0,5.35,4.21,31.821,31.821,0,0,0,15.565,3.689c1.3,0,2.533-.06,3.647-.155A86.013,86.013,0,0,0,102.9,81.3a1.708,1.708,0,0,0-.53-3.331Z" transform="translate(-60.272 -74.532)" fill="#e9573f"/>
    <path id="Path_730" data-name="Path 730" d="M287.22,307.442a167.06,167.06,0,0,1-17.407,2.55c-16.145,1.356-21.79-1.942-21.845-1.975a1.707,1.707,0,1,0-1.842,2.875,17.556,17.556,0,0,0,5.59,1.895,53.146,53.146,0,0,0,10.663.954c2.412,0,4.991-.115,7.719-.343,6.5-.546,13.068-1.7,16.2-2.293Q286.834,309.308,287.22,307.442Z" transform="translate(-215.199 -270.137)" fill="#e9573f"/>
    <path id="Path_731" data-name="Path 731" d="M111.681,416.006a1.7,1.7,0,0,0-.908.263c-.075.048-7.583,4.7-15.968,5.406a66.833,66.833,0,0,1-20.73-1.582,57.68,57.68,0,0,1-6.608-1.977,41.22,41.22,0,0,0,5.95,5.333,70.833,70.833,0,0,0,16.076,1.862c1.8,0,3.671-.07,5.6-.233a43.665,43.665,0,0,0,17.5-5.916,1.71,1.71,0,0,0-.908-3.156Z" transform="translate(-65.816 -361.312)" fill="#e9573f"/>
  </g>
</svg>
