<svg xmlns="http://www.w3.org/2000/svg" width="57.279" height="57.281" viewBox="0 0 57.279 57.281">
  <g id="moon-svgrepo-com_1_" data-name="moon-svgrepo-com (1)" transform="translate(-0.004)">
    <path id="Path_737" data-name="Path 737" d="M28.644,0A28.64,28.64,0,1,1,0,28.64,28.64,28.64,0,0,1,28.644,0Z" fill="#efc75e"/>
    <g id="Group_94" data-name="Group 94" transform="translate(10.708 7.183)">
      <path id="Path_738" data-name="Path 738" d="M65.42,51.676a7.155,7.155,0,0,1-11.049-7.69,7.085,7.085,0,0,1,1.049-2.195,7.084,7.084,0,0,0-2.837,3.984,7.168,7.168,0,0,0,12.838,5.9Zm22.751-2.261a8.911,8.911,0,0,1-7.136-14.3A8.924,8.924,0,1,0,93.518,47.6,8.864,8.864,0,0,1,88.171,49.415ZM62.178,70.784A3.583,3.583,0,0,1,59.647,66.4l.2-.53a3.57,3.57,0,1,0,4.724,4.706A3.538,3.538,0,0,1,62.178,70.784Zm17.434-1.871a5.37,5.37,0,0,1-3.8-6.58,5.274,5.274,0,0,1,.637-1.418,5.359,5.359,0,1,0,7.305,7.409A5.35,5.35,0,0,1,79.613,68.913Z" transform="translate(-52.336 -35.117)" fill="#c89147"/>
    </g>
    <path id="Path_739" data-name="Path 739" d="M32.224,79.693A28.631,28.631,0,0,1,10.268,32.676,28.633,28.633,0,1,0,50.6,73.011,28.511,28.511,0,0,1,32.224,79.693Z" transform="translate(0 -25.992)" fill="#d7b354"/>
    <g id="Group_95" data-name="Group 95" transform="translate(10.708 5.37)">
      <path id="Path_740" data-name="Path 740" d="M192.882,35.6a28.757,28.757,0,0,0-8.28-9.285l-.63-.064a8.95,8.95,0,1,0,8.91,9.349Z" transform="translate(-149.927 -26.252)" fill="#dfa14f"/>
      <circle id="Ellipse_332" data-name="Ellipse 332" cx="5.372" cy="5.372" r="5.372" transform="translate(21.505 26.839)" fill="#dfa14f"/>
      <path id="Path_741" data-name="Path 741" d="M61.386,61.516a7.163,7.163,0,1,0,5.083,8.771A7.189,7.189,0,0,0,61.386,61.516Z" transform="translate(-52.336 -54.107)" fill="#dfa14f"/>
      <circle id="Ellipse_333" data-name="Ellipse 333" cx="3.58" cy="3.58" r="3.58" transform="translate(5.4 32.232)" fill="#dfa14f"/>
    </g>
  </g>
</svg>
