<svg xmlns="http://www.w3.org/2000/svg" width="26.577" height="26.577" viewBox="0 0 26.577 26.577">
  <g id="saturn-svgrepo-com" transform="translate(-17.072 -17.072)">
    <path id="Path_714" data-name="Path 714" d="M43.458,32.394A11.063,11.063,0,1,1,32.4,21.332,11.062,11.062,0,0,1,43.458,32.394Z" transform="translate(-2.036 -2.036)" fill="#ffce54"/>
    <path id="Path_715" data-name="Path 715" d="M25.984.594c-1.218-1.217-4.107-.5-7.651,1.6a12.056,12.056,0,0,1,1.162.607c.174-.1.348-.192.519-.283C22.876,1.011,24.682.858,25.2,1.377s.367,2.325-1.145,5.186a33.728,33.728,0,0,1-3.1,4.717,53.327,53.327,0,0,1-4.539,5.142,53.453,53.453,0,0,1-5.141,4.539,33.731,33.731,0,0,1-4.717,3.1C3.7,25.568,1.9,25.72,1.377,25.2s-.367-2.324,1.146-5.186c.09-.172.185-.345.282-.519A12.146,12.146,0,0,1,2.2,18.334C.091,21.877-.624,24.766.594,25.985c2.162,2.162,9.6-1.769,16.61-8.781S28.147,2.756,25.984.594Z" transform="translate(17.072 17.071)" fill="#f6bb42"/>
  </g>
</svg>
