<svg xmlns="http://www.w3.org/2000/svg" width="52.134" height="50.949" viewBox="0 0 52.134 50.949">
  <g id="stars-star-svgrepo-com" transform="translate(4.067 3.475)">
    <path id="Path_779" data-name="Path 779" d="M26.067,0c14.4,0,26.067,11.405,26.067,25.475S40.463,50.949,26.067,50.949,0,39.544,0,25.475,11.671,0,26.067,0Z" transform="translate(-4.067 -3.475)" fill="#4897db"/>
    <path id="Path_773" data-name="Path 773" d="M118.631,122.192c0-5.117-5.285-5.285-5.285-5.285,5.117,0,5.285-5.285,5.285-5.285,0,5.117,5.285,5.285,5.285,5.285C118.8,116.907,118.631,122.192,118.631,122.192Z" transform="translate(-103.716 -102.138)" fill="#ffc61b"/>
    <path id="Path_774" data-name="Path 774" d="M175.55,111.621c0,5.117,5.285,5.285,5.285,5.285-5.117,0-5.285,5.285-5.285,5.285Z" transform="translate(-160.635 -102.138)" fill="#ffc61b"/>
    <path id="Path_775" data-name="Path 775" d="M146.8,320.175a2.729,2.729,0,0,0-2.71-2.71,2.728,2.728,0,0,0,2.71-2.71,2.728,2.728,0,0,0,2.71,2.71A2.729,2.729,0,0,0,146.8,320.175Z" transform="translate(-131.847 -288.014)" fill="#ffc61b"/>
    <path id="Path_776" data-name="Path 776" d="M175.981,314.756a2.728,2.728,0,0,0,2.71,2.71,2.729,2.729,0,0,0-2.71,2.71Z" transform="translate(-161.029 -288.014)" fill="#ffc61b"/>
    <path id="Path_777" data-name="Path 777" d="M220.579,168.208c0-8.408-8.684-8.684-8.684-8.684,8.408,0,8.684-8.684,8.684-8.684,0,8.408,8.684,8.684,8.684,8.684C220.855,159.524,220.579,168.208,220.579,168.208Z" transform="translate(-193.892 -138.025)" fill="#ffc61b"/>
    <path id="Path_778" data-name="Path 778" d="M314.109,150.84c0,8.408,8.684,8.684,8.684,8.684-8.408,0-8.684,8.684-8.684,8.684Z" transform="translate(-287.422 -138.024)" fill="#ffc61b"/>
  </g>
</svg>
