<svg xmlns="http://www.w3.org/2000/svg" width="62" height="64.904" viewBox="0 0 62 64.904">
  <g id="telescope-svgrepo-com" transform="translate(-10.378)">
    <rect id="Rectangle_1578" data-name="Rectangle 1578" width="6.732" height="3.388" transform="matrix(0.414, -0.91, 0.91, 0.414, 62.639, 32.438)" fill="#5b5b5f" opacity="0.4"/>
    <path id="Path_759" data-name="Path 759" d="M413.65,204.725l-.411.9-2.3-1.047-1.966,4.32,2.3,1.047-.411.9,1.565.712,2.788-6.128Z" transform="translate(-342.837 -175.964)" fill="#59595a"/>
    <rect id="Rectangle_1579" data-name="Rectangle 1579" width="6.732" height="0.897" transform="matrix(0.414, -0.91, 0.91, 0.414, 62.639, 32.438)" fill="#5b5b5f" opacity="0.4"/>
    <path id="Path_760" data-name="Path 760" d="M17.468,3.11a8.526,8.526,0,0,0-5.843,12.84Z" transform="translate(0 -2.675)" fill="#5f95dd"/>
    <path id="Path_761" data-name="Path 761" d="M74.024,27.714l-3.084-1.4.549-1.206L22.945,0,16.786,13.535,67.6,33.644l.549-1.206,3.084,1.4Z" transform="translate(-5.512)" fill="#5b5b5f" opacity="0.4"/>
    <rect id="Rectangle_1580" data-name="Rectangle 1580" width="6.732" height="0.897" transform="matrix(0.414, -0.91, 0.91, 0.414, 62.639, 32.438)" fill="#5b5b5f" opacity="0.4"/>
    <path id="Path_762" data-name="Path 762" d="M52.241,30.564l1,.4,5.892-12.949-.958-.5Z" transform="translate(-36.007 -15.066)" fill="#59595a"/>
    <path id="Path_763" data-name="Path 763" d="M16.786,13.535l2.668,1.056,6.04-13.273L22.945,0l-5.18,11.383Z" transform="translate(-5.512)" fill="#59595a"/>
    <rect id="Rectangle_1581" data-name="Rectangle 1581" width="6.732" height="3.388" transform="matrix(0.414, -0.91, 0.91, 0.414, 62.639, 32.438)" fill="#5b5b5f" opacity="0.4"/>
    <path id="Path_764" data-name="Path 764" d="M409.9,203.016l-.411.9-2.912-1.325-1.966,4.32,2.912,1.325-.411.9,1.565.712,2.788-6.128Z" transform="translate(-339.083 -174.255)" fill="#59595a"/>
    <rect id="Rectangle_1582" data-name="Rectangle 1582" width="6.732" height="0.897" transform="matrix(0.414, -0.91, 0.91, 0.414, 62.639, 32.438)" fill="#5b5b5f" opacity="0.4"/>
    <path id="Path_765" data-name="Path 765" d="M17.468,3.11a8.526,8.526,0,0,0-5.843,12.84Z" transform="translate(0 -2.675)" fill="#90c5ff"/>
    <path id="Path_766" data-name="Path 766" d="M74.024,27.714l-3.084-1.4.549-1.206L22.945,0,16.786,13.535,67.6,33.644l.549-1.206,3.084,1.4Z" transform="translate(-5.512)" fill="#d8d9dd"/>
    <rect id="Rectangle_1583" data-name="Rectangle 1583" width="6.732" height="0.897" transform="matrix(0.414, -0.91, 0.91, 0.414, 62.639, 32.438)" fill="#5b5b5f" opacity="0.4"/>
    <path id="Path_767" data-name="Path 767" d="M52.241,30.564l1,.4,5.892-12.949-.958-.5Z" transform="translate(-36.007 -15.066)" fill="#59595a"/>
    <path id="Path_768" data-name="Path 768" d="M16.786,13.535l2.668,1.056,6.04-13.273L22.945,0l-5.18,11.383Z" transform="translate(-5.512)" fill="#59595a"/>
    <path id="Path_769" data-name="Path 769" d="M11.145,37.942h0a8.513,8.513,0,0,0,.348,7.745l-.22.483,4.96,1.963.732.29L62.091,66.278l.549-1.206,3.084,1.4.411-.9,2.3,1.047-.411.9,1.565.712,1.394-3.064Z" transform="translate(0 -32.635)" fill="#5b5b5f" opacity="0.3"/>
    <path id="Path_770" data-name="Path 770" d="M146.715,199.674l2.567-1.114-18.17-41.871-18.17,41.872,2.567,1.114,6.328-14.583h7.876v14.026h2.8V185.091h7.876ZM123.05,182.293l6.662-15.353v15.353Zm9.46,0V166.94l6.662,15.353Z" transform="translate(-88.216 -134.771)" fill="#59595a"/>
    <circle id="Ellipse_334" data-name="Ellipse 334" cx="3.886" cy="3.886" r="3.886" transform="translate(39.009 21.546)" fill="#e5c400"/>
    <circle id="Ellipse_335" data-name="Ellipse 335" cx="2.189" cy="2.189" r="2.189" transform="translate(40.706 23.243)" fill="#5b5b5f" opacity="0.4"/>
  </g>
</svg>
